# xmcd
#
# Track frame offsets:
#	150
#	11020
#	23416
#	40157
#	53208
#	68557
#	81601
#	90442
#	106619
#	123790
#	141935
#	157454
#	169315
#	178251
#	189396
#
# Disc length: 2731 seconds
#
# Revision: 1
# Processed by: cddbd v1.5.2PL0 Copyright (c) Steve Scherf et al.
# Submitted via: audiograbber 1.83.01
#
DISCID=c30aa90f
DTITLE=Various Artist - First Ladies Of Country
DYEAR=2007
DGENRE=Country
TTITLE0=Patsy Cline - Crazy
TTITLE1=Billie Jo Spears - Misty Blue
TTITLE2=Marie O'Brien - Loving Him Was Easier
TTITLE3=Jo Ann Houston - Let's Love The Bad Times Away
TTITLE4=Barbara Fairchild - Slippin Away
TTITLE5=Tina Davis - Last Days Of Love
TTITLE6=Billie Jo Spears - You're My Man
TTITLE7=Anne Murray - Both Sides Now
TTITLE8=Lynn Anderson - Blue Bayou
TTITLE9=Marie O'Brien - For Reasons I've Forgotten
TTITLE10=Jo Anne Houston - If We're Not In Love By Monday
TTITLE11=Patsy Cline - I've Loved and Lost Again
TTITLE12=Billie Jo Spears - Sweet Dreams
TTITLE13=Cindy Morgan - Your Old Love Letters
TTITLE14=Marie O'Brien - Always On My Mind
EXTD=
EXTT0=
EXTT1=
EXTT2=
EXTT3=
EXTT4=
EXTT5=
EXTT6=
EXTT7=
EXTT8=
EXTT9=
EXTT10=
EXTT11=
EXTT12=
EXTT13=
EXTT14=
PLAYORDER=
